<svg xmlns="http://www.w3.org/2000/svg" xmlns:xlink="http://www.w3.org/1999/xlink" version="1.1" preserveAspectRatio="xMidYMid meet" viewBox="633 192 316 128"><g data-item-type="text" data-item="Business" id="logo__item--business" class="logo__item">
    <g class="logo__item__inner" transform="translate(680 280) scale(0.8559853685850916 0.8559853685850916) rotate(0 0 0)">
        <text dy="0" dominant-baseline="auto" alignment-baseline="auto" font-family="Raleway" font-weight="normal" font-style="normal" font-size="32px" fill="#9b822c" letter-spacing="1" data-part-id="logo__item--business" data-font-family="Raleway" data-font-weight="normal" data-font-style="normal" data-ttf-url="/builder_assets/fontsttf/font-montserrat-bold-normal.ttf" data-font-filename="raleway-normal-normal" style="dominant-baseline: auto;alignment-baseline: auto;font-family: system-ui;font-weight: 100;fill: #0c7ba1;">Ajay Vijayakumaran</text>
    </g>
</g><g data-item-type="shape" data-item="Shape" data-logo-item="" id="logo__item--shape_1" class="logo__item">
    <g class="logo__item__inner" transform="translate(621.6015243530273 129.72061157226562) scale(2.7628284869541373 2.7628284869541373) rotate(44.647232121675 59.31359539306259 58.9353439198904)">
        
<g>
	<g>
		<g>
			<path fill="#beaa21" d="M88.4,31.5C77.6,52,43.2,90.4,18.3,87.3c-0.3,2.2-0.3,4.3,0,6.2C39.7,101.8,83.5,47.6,88.4,31.5z" data-part-id="logo__item--shape_1__0" style="&#10;    fill: #22789f;&#10;"/>
			<path fill="#9b822c" d="M18.3,87.3C20.6,68.2,42,41.8,63.7,26.1l0.8,5.4c10.3-14,22.1-27.7,22.1-27.7s-22.9,8-30.1,8.6l3.2,4.2     C19.5,44.4,0.5,84.2,18.3,93.5C18.1,91.5,18.1,89.5,18.3,87.3z" data-part-id="logo__item--shape_1__1" style="&#10;    fill: #1282a8;&#10;"/>
		</g>
	</g>
</g>

    </g>
</g></svg>